<svg width="30" height="30" viewBox="0 0 30 30" fill="none" xmlns="http://www.w3.org/2000/svg">
<path d="M28.9984 18.6194C28.7486 19.2822 28.5444 19.967 28.2403 20.6034C26.0194 25.2501 22.3774 28.1068 17.2846 28.8427C9.16079 30.0172 2.68366 24.4499 1.28778 17.6126C-0.191526 10.3581 4.16681 3.12835 11.2697 1.04983C11.6995 0.924524 12.064 1.03774 12.2841 1.36474C12.5113 1.70218 12.4767 2.08909 12.1666 2.44192C10.7477 4.05604 9.84143 5.91473 9.52361 8.046C9.0757 11.0616 9.74757 13.8166 11.5765 16.2507C13.4873 18.7925 16.0589 20.2533 19.2206 20.5666C22.2545 20.8672 24.9617 19.9972 27.3138 18.0445C27.4049 17.9687 27.4921 17.8885 27.5838 17.8132C28.0828 17.4026 28.6816 17.5466 28.949 18.1429C28.9638 18.1759 28.983 18.2067 29 18.2385L28.9984 18.6194Z" fill="#D0D0D0"/>
<path d="M18.5899 15.5083C18.2502 15.4956 18.002 15.3231 17.8462 15.0137C17.5563 14.4355 17.2758 13.8524 16.9728 13.2819C16.8962 13.1432 16.7821 13.0289 16.6435 12.9522C16.0891 12.6576 15.5248 12.3823 14.9605 12.1075C14.6268 11.9426 14.4281 11.6898 14.4281 11.3166C14.4281 10.9435 14.6317 10.6901 14.9638 10.5274C15.5358 10.2477 16.1072 9.9674 16.6709 9.67118C16.7951 9.60324 16.8974 9.50124 16.9657 9.37715C17.2621 8.81328 17.5443 8.24172 17.8231 7.66905C17.9828 7.3393 18.2359 7.17113 18.5998 7.16673C18.9742 7.16179 19.2409 7.32556 19.4073 7.66466C19.6905 8.24556 19.9765 8.82262 20.2745 9.39529C20.3343 9.5039 20.4241 9.593 20.5331 9.65194C21.1056 9.95092 21.6858 10.2394 22.2638 10.523C22.597 10.6879 22.8006 10.9396 22.8034 11.3111C22.8061 11.6826 22.6052 11.9404 22.2726 12.1042C21.6935 12.39 21.1149 12.6768 20.5435 12.9775C20.4279 13.0412 20.3327 13.1365 20.269 13.2523C19.9655 13.8326 19.6784 14.4223 19.3858 15.0082C19.2228 15.3297 18.9681 15.505 18.5899 15.5083Z" fill="#D0D0D0"/>
<path d="M24.4727 5.52456C24.1982 5.52456 23.9545 5.52895 23.7108 5.52456C23.1701 5.51246 22.8029 5.16348 22.8073 4.67105C22.8117 4.17863 23.18 3.84284 23.7289 3.84009C23.9644 3.84009 24.1999 3.84009 24.4738 3.84009C24.4738 3.57959 24.4738 3.33722 24.4738 3.09485C24.4798 2.53923 24.8372 2.15122 25.3295 2.16057C25.8219 2.16991 26.1529 2.55077 26.1556 3.09485C26.1556 3.33062 26.1556 3.56695 26.1556 3.84009C26.4235 3.84009 26.6744 3.84009 26.9241 3.84009C27.4439 3.84503 27.8194 4.18797 27.8293 4.66446C27.8391 5.14095 27.4697 5.50422 26.951 5.52181C26.6974 5.5306 26.4427 5.52181 26.1523 5.52181C26.1523 5.79275 26.1551 6.04446 26.1523 6.29672C26.1479 6.82212 25.8043 7.18759 25.3207 7.19034C24.8372 7.19309 24.4859 6.83036 24.4732 6.31101C24.4677 6.06479 24.4727 5.81858 24.4727 5.52456Z" fill="#D0D0D0"/>
</svg>
